<?xml version="1.0" encoding="UTF-8" standalone="no"?>
<!-- Created with Inkscape (http://www.inkscape.org/) -->

<svg
   width="68.500999mm"
   height="16.824434mm"
   viewBox="0 0 68.501 16.824434"
   version="1.1"
   id="svg406"
   inkscape:version="1.2.2 (732a01da63, 2022-12-09)"
   sodipodi:docname="ssilv_logo.svg"
   xmlns:inkscape="http://www.inkscape.org/namespaces/inkscape"
   xmlns:sodipodi="http://sodipodi.sourceforge.net/DTD/sodipodi-0.dtd"
   xmlns="http://www.w3.org/2000/svg"
   xmlns:svg="http://www.w3.org/2000/svg">
  <sodipodi:namedview
     id="namedview408"
     pagecolor="#ffffff"
     bordercolor="#666666"
     borderopacity="1.0"
     inkscape:showpageshadow="2"
     inkscape:pageopacity="0.0"
     inkscape:pagecheckerboard="0"
     inkscape:deskcolor="#d1d1d1"
     inkscape:document-units="mm"
     showgrid="false"
     inkscape:zoom="2.0888418"
     inkscape:cx="149.8438"
     inkscape:cy="-44.52228"
     inkscape:window-width="1920"
     inkscape:window-height="1009"
     inkscape:window-x="-8"
     inkscape:window-y="-8"
     inkscape:window-maximized="1"
     inkscape:current-layer="layer1" />
  <defs
     id="defs403" />
  <g
     inkscape:label="Ebene 1"
     inkscape:groupmode="layer"
     id="layer1"
     transform="translate(-67.496365,-180.52451)">
    <path
       sodipodi:nodetypes="scssssssssssssssssssssssssssscssssssssssssssscsssssssssssssss"
       inkscape:connector-curvature="0"
       id="path4243"
       d="m 67.651848,194.1864 -0.155483,-0.0477 0.110861,-0.0621 c 0.205533,-0.1152 0.818998,-0.29227 1.918059,-0.55363 1.907439,-0.4536 2.688102,-0.76395 3.195872,-1.27049 0.42518,-0.42415 0.600392,-0.83588 0.50732,-1.19213 -0.120129,-0.45982 -0.387455,-0.99103 -1.171881,-1.54494 -1.18221,-0.8348 -1.439179,-1.04488 -1.744584,-1.42625 -0.467123,-0.5833 -0.591146,-1.23081 -0.367764,-1.92006 0.205459,-0.63394 0.623747,-1.04067 1.896579,-1.84415 0.96376,-0.60838 1.104423,-0.79105 1.312672,-1.70464 0.161594,-0.70892 0.410732,-1.52886 0.532546,-1.75267 0.111805,-0.20542 0.285454,-0.34287 0.433492,-0.34313 0.115631,-1.3e-4 0.318427,0.17516 0.409632,0.3542 0.04054,0.0796 0.156864,0.35506 0.258504,0.61218 0.268019,0.67803 0.594153,1.35559 0.805525,1.67354 0.259598,0.3905 0.626737,0.68184 1.568916,1.24502 0.863283,0.51603 1.143162,0.74699 1.337192,1.10348 0.289216,0.53139 0.291,1.15829 0.0052,1.83725 -0.125369,0.29787 0.158866,0.15396 0.259807,0.12778 0.214268,-0.0556 2.265634,-0.75046 2.73604,-1.01 0.232965,-0.12854 2.421322,-1.05421 2.992219,-1.2657 0.283173,-0.1049 0.574652,-0.19983 0.647728,-0.21096 0.252656,-0.0385 1.324074,0.36819 3.141839,1.1925 1.530438,0.69402 2.084785,0.85428 2.957175,0.85492 1.055443,7.9e-4 1.419264,0.0683 1.489569,-1.22181 0.05445,-0.99908 0.144169,-1.79448 0.218671,-1.93855 0.04547,-0.0879 0.08641,-0.11763 0.149679,-0.10859 0.186697,0.0267 0.242644,0.33591 0.308289,1.70395 0.05864,1.222 -0.318138,1.6304 -0.467005,1.8507 -0.141075,0.2259 -0.511187,0.43269 -0.850319,0.52935 -0.244223,0.0696 -0.659406,0.13733 -1.261876,0.0707 -1.023726,-0.11319 -1.438825,-0.0564 -3.277425,-1.06669 -0.93059,-0.51137 -1.685418,-0.82707 -2.049353,-0.94759 -0.224917,-0.0745 -0.339467,-0.0972 -0.58738,-0.003 -0.34965,0.13309 -0.590186,0.30689 -1.828249,0.9159 -1.201755,0.59115 -1.365077,0.67288 -1.956889,0.89396 -1.051917,0.39297 -2.250847,0.72062 -3.131356,0.73106 -0.274185,0.003 -0.651028,0.0115 -0.807629,-0.21241 -0.168612,-0.2411 -0.169551,-0.5669 -0.0025,-0.88469 0.308079,-0.58625 0.318819,-0.61471 0.334114,-0.88539 0.01318,-0.23325 0.0015,-0.29349 -0.08542,-0.44094 -0.190459,-0.32304 -0.442034,-0.49875 -1.131566,-0.79033 -1.113365,-0.47081 -1.520984,-0.84877 -1.764453,-1.63609 -0.04413,-0.14272 -0.136385,-0.44484 -0.204998,-0.67137 -0.07313,-0.24143 -0.14316,-0.40573 -0.169237,-0.39704 -0.02447,0.008 -0.09317,0.21146 -0.152664,0.45179 -0.173091,0.69917 -0.353928,1.19462 -0.53472,1.46499 -0.142553,0.21319 -0.262413,0.3177 -0.823353,0.71792 -1.04353,0.74455 -1.356291,1.09936 -1.354284,1.53638 0.0021,0.45321 0.367708,0.85633 1.456305,1.60565 0.825278,0.56807 1.025008,0.73288 1.268733,1.04691 0.489302,0.63044 0.722845,1.54047 0.497332,2.20989 -0.222454,0.66035 -0.842973,1.32775 -1.582429,1.70199 -0.643713,0.32578 -1.639532,0.56719 -3.278475,0.79477 -1.098757,0.15257 -1.782535,0.19552 -2.008557,0.12615 z m 25.250775,-11.61439 c -0.328643,-0.14928 -0.427664,-0.51094 -0.215908,-0.78856 0.3259,-0.42728 1.063907,-0.21249 1.063907,0.30963 0,0.40414 -0.4514,0.65908 -0.847999,0.47893 z"
       style="fill:#696969;stroke-width:0.264583;fill-opacity:1"
       inkscape:export-xdpi="68.940689"
       inkscape:export-ydpi="68.940689" />
    <text
       id="text4245"
       y="192.75388"
       x="75.242928"
       style="font-style:normal;font-weight:normal;font-size:3.175px;line-height:0%;font-family:sans-serif;letter-spacing:0px;word-spacing:0px;fill:#000000;fill-opacity:1;stroke:none;stroke-width:0.132292;stroke-linecap:butt;stroke-linejoin:miter;stroke-miterlimit:4;stroke-dasharray:none;stroke-opacity:1"
       xml:space="preserve"
       inkscape:export-xdpi="68.940689"
       inkscape:export-ydpi="68.940689"><tspan
         style="font-style:normal;font-variant:normal;font-weight:normal;font-stretch:normal;font-size:4.96094px;line-height:125%;font-family:Jura;-inkscape-font-specification:'Jura, Normal';text-align:start;writing-mode:lr-tb;text-anchor:start;stroke-width:0.132292;stroke-miterlimit:4;stroke-dasharray:none"
         y="192.75388"
         x="75.242928"
         id="tspan4247"
         sodipodi:role="line"><tspan
           id="tspan4249"
           style="font-style:normal;font-variant:normal;font-weight:normal;font-stretch:normal;font-size:4.96094px;line-height:125%;font-family:Jura;-inkscape-font-specification:'Jura, Normal';text-align:start;writing-mode:lr-tb;text-anchor:start;fill:#000000;fill-opacity:1;stroke:#000000;stroke-width:0.0743455;stroke-miterlimit:4;stroke-dasharray:none;stroke-opacity:1">Schloss-Schule</tspan><tspan
           id="tspan4251"
           style="font-style:normal;font-variant:normal;font-weight:normal;font-stretch:normal;font-size:4.96094px;line-height:125%;font-family:Jura;-inkscape-font-specification:'Jura, Normal';text-align:start;writing-mode:lr-tb;text-anchor:start;fill:#d74958;fill-opacity:1;stroke:#d74958;stroke-width:0.0743455;stroke-opacity:1"> <tspan
   style="fill:#696969;fill-opacity:1;stroke:#696969;stroke-opacity:1"
   id="tspan6276">Ilvesheim</tspan></tspan></tspan></text>
    <text
       id="text813"
       y="196.73499"
       x="75.418808"
       style="font-style:normal;font-weight:normal;font-size:1.96466px;line-height:0%;font-family:sans-serif;letter-spacing:0px;word-spacing:0px;fill:#000000;fill-opacity:1;stroke:none;stroke-width:0.0818612;stroke-linecap:butt;stroke-linejoin:miter;stroke-miterlimit:4;stroke-dasharray:none;stroke-opacity:1"
       xml:space="preserve"
       inkscape:export-xdpi="68.940689"
       inkscape:export-ydpi="68.940689"><tspan
         style="font-style:normal;font-variant:normal;font-weight:normal;font-stretch:normal;font-size:3.06979px;line-height:125%;font-family:Jura;-inkscape-font-specification:'Jura, Normal';text-align:start;writing-mode:lr-tb;text-anchor:start;fill:#000000;fill-opacity:1;stroke:none;stroke-width:0.25;stroke-miterlimit:4;stroke-dasharray:none;stroke-opacity:1"
         y="196.73499"
         x="75.418808"
         id="tspan811"
         sodipodi:role="line">Medienberatungszentrum</tspan></text>
  </g>
</svg>
