<?xml version="1.0" encoding="UTF-8" standalone="no"?>
<!-- Created with Inkscape (http://www.inkscape.org/) -->

<svg
   width="68.500999mm"
   height="16.824434mm"
   viewBox="0 0 68.501 16.824434"
   version="1.1"
   id="svg406"
   inkscape:version="1.2.2 (732a01da63, 2022-12-09)"
   sodipodi:docname="ssilv_logo.svg"
   xmlns:inkscape="http://www.inkscape.org/namespaces/inkscape"
   xmlns:sodipodi="http://sodipodi.sourceforge.net/DTD/sodipodi-0.dtd"
   xmlns="http://www.w3.org/2000/svg"
   xmlns:svg="http://www.w3.org/2000/svg">
  <sodipodi:namedview
     id="namedview408"
     pagecolor="#ffffff"
     bordercolor="#666666"
     borderopacity="1.0"
     inkscape:showpageshadow="2"
     inkscape:pageopacity="0.0"
     inkscape:pagecheckerboard="0"
     inkscape:deskcolor="#d1d1d1"
     inkscape:document-units="mm"
     showgrid="false"
     inkscape:zoom="2.0888418"
     inkscape:cx="149.8438"
     inkscape:cy="-44.52228"
     inkscape:window-width="1920"
     inkscape:window-height="1009"
     inkscape:window-x="-8"
     inkscape:window-y="-8"
     inkscape:window-maximized="1"
     inkscape:current-layer="layer1" />
  <defs
     id="defs403" />
  <g
     inkscape:label="Ebene 1"
     inkscape:groupmode="layer"
     id="layer1"
     transform="translate(-67.496365,-180.52451)">
    <path
       sodipodi:nodetypes="scssssssssssssssssssssssssssscssssssssssssssscsssssssssssssss"
       inkscape:connector-curvature="0"
       id="path4243"
       d="m 67.651848,194.1864 -0.155483,-0.0477 0.110861,-0.0621 c 0.205533,-0.1152 0.818998,-0.29227 1.918059,-0.55363 1.907439,-0.4536 2.688102,-0.76395 3.195872,-1.27049 0.42518,-0.42415 0.600392,-0.83588 0.50732,-1.19213 -0.120129,-0.45982 -0.387455,-0.99103 -1.171881,-1.54494 -1.18221,-0.8348 -1.439179,-1.04488 -1.744584,-1.42625 -0.467123,-0.5833 -0.591146,-1.23081 -0.367764,-1.92006 0.205459,-0.63394 0.623747,-1.04067 1.896579,-1.84415 0.96376,-0.60838 1.104423,-0.79105 1.312672,-1.70464 0.161594,-0.70892 0.410732,-1.52886 0.532546,-1.75267 0.111805,-0.20542 0.285454,-0.34287 0.433492,-0.34313 0.115631,-1.3e-4 0.318427,0.17516 0.409632,0.3542 0.04054,0.0796 0.156864,0.35506 0.258504,0.61218 0.268019,0.67803 0.594153,1.35559 0.805525,1.67354 0.259598,0.3905 0.626737,0.68184 1.568916,1.24502 0.863283,0.51603 1.143162,0.74699 1.337192,1.10348 0.289216,0.53139 0.291,1.15829 0.0052,1.83725 -0.125369,0.29787 0.158866,0.15396 0.259807,0.12778 0.214268,-0.0556 2.265634,-0.75046 2.73604,-1.01 0.232965,-0.12854 2.421322,-1.05421 2.992219,-1.2657 0.283173,-0.1049 0.574652,-0.19983 0.647728,-0.21096 0.252656,-0.0385 1.324074,0.36819 3.141839,1.1925 1.530438,0.69402 2.084785,0.85428 2.957175,0.85492 1.055443,7.9e-4 1.419264,0.0683 1.489569,-1.22181 0.05445,-0.99908 0.144169,-1.79448 0.218671,-1.93855 0.04547,-0.0879 0.08641,-0.11763 0.149679,-0.10859 0.186697,0.0267 0.242644,0.33591 0.308289,1.70395 0.05864,1.222 -0.318138,1.6304 -0.467005,1.8507 -0.141075,0.2259 -0.511187,0.43269 -0.850319,0.52935 -0.244223,0.0696 -0.659406,0.13733 -1.261876,0.0707 -1.023726,-0.11319 -1.438825,-0.0564 -3.277425,-1.06669 -0.93059,-0.51137 -1.685418,-0.82707 -2.049353,-0.94759 -0.224917,-0.0745 -0.339467,-0.0972 -0.58738,-0.003 -0.34965,0.13309 -0.590186,0.30689 -1.828249,0.9159 -1.201755,0.59115 -1.365077,0.67288 -1.956889,0.89396 -1.051917,0.39297 -2.250847,0.72062 -3.131356,0.73106 -0.274185,0.003 -0.651028,0.0115 -0.807629,-0.21241 -0.168612,-0.2411 -0.169551,-0.5669 -0.0025,-0.88469 0.308079,-0.58625 0.318819,-0.61471 0.334114,-0.88539 0.01318,-0.23325 0.0015,-0.29349 -0.08542,-0.44094 -0.190459,-0.32304 -0.442034,-0.49875 -1.131566,-0.79033 -1.113365,-0.47081 -1.520984,-0.84877 -1.764453,-1.63609 -0.04413,-0.14272 -0.136385,-0.44484 -0.204998,-0.67137 -0.07313,-0.24143 -0.14316,-0.40573 -0.169237,-0.39704 -0.02447,0.008 -0.09317,0.21146 -0.152664,0.45179 -0.173091,0.69917 -0.353928,1.19462 -0.53472,1.46499 -0.142553,0.21319 -0.262413,0.3177 -0.823353,0.71792 -1.04353,0.74455 -1.356291,1.09936 -1.354284,1.53638 0.0021,0.45321 0.367708,0.85633 1.456305,1.60565 0.825278,0.56807 1.025008,0.73288 1.268733,1.04691 0.489302,0.63044 0.722845,1.54047 0.497332,2.20989 -0.222454,0.66035 -0.842973,1.32775 -1.582429,1.70199 -0.643713,0.32578 -1.639532,0.56719 -3.278475,0.79477 -1.098757,0.15257 -1.782535,0.19552 -2.008557,0.12615 z m 25.250775,-11.61439 c -0.328643,-0.14928 -0.427664,-0.51094 -0.215908,-0.78856 0.3259,-0.42728 1.063907,-0.21249 1.063907,0.30963 0,0.40414 -0.4514,0.65908 -0.847999,0.47893 z"
       style="fill:#696969;stroke-width:0.264583;fill-opacity:1"
       inkscape:export-xdpi="68.940689"
       inkscape:export-ydpi="68.940689" />
    <g
       aria-label="Schloss-Schule Ilvesheim"
       id="text4245"
       style="font-size:3.175px;line-height:0%;letter-spacing:0px;word-spacing:0px;stroke-width:0.132292">
      <path
         d="m 76.52285,192.74891 q -0.441524,0 -0.654844,-0.19347 -0.21332,-0.19844 -0.228203,-0.62508 -0.005,-0.0595 0.02976,-0.0943 0.03969,-0.0397 0.09922,-0.0397 0.05457,0 0.0893,0.0347 0.03473,0.0347 0.03969,0.0943 0.0099,0.3175 0.148828,0.44152 0.138906,0.12403 0.47625,0.12403 h 0.714375 q 0.357188,0 0.491133,-0.13395 0.138907,-0.13891 0.138907,-0.49113 0,-0.35223 -0.138907,-0.48617 -0.138906,-0.13891 -0.491133,-0.13891 h -0.679648 q -0.436563,0 -0.639962,-0.2034 -0.203398,-0.2034 -0.203398,-0.63996 0,-0.4316 0.203398,-0.635 0.203399,-0.2034 0.635001,-0.2034 h 0.699492 q 0.416719,0 0.615157,0.18852 0.203398,0.18851 0.218281,0.58539 0.005,0.0595 -0.03473,0.0942 -0.03473,0.0347 -0.09426,0.0347 -0.05457,0 -0.0893,-0.0347 -0.03473,-0.0347 -0.03969,-0.0893 -0.005,-0.28774 -0.138906,-0.40184 -0.128985,-0.11906 -0.436563,-0.11906 h -0.699492 q -0.322461,0 -0.451446,0.12898 -0.128984,0.12899 -0.128984,0.45145 0,0.32742 0.128984,0.45641 0.128985,0.12898 0.456407,0.12898 h 0.679648 q 0.461368,0 0.674688,0.21332 0.213321,0.21332 0.213321,0.66973 0,0.4564 -0.213321,0.66972 -0.21332,0.21332 -0.674688,0.21332 z"
         style="font-size:4.96094px;line-height:125%;font-family:Jura;-inkscape-font-specification:'Jura, Normal';stroke:#000000;stroke-width:0.0743455"
         id="path7016" />
      <path
         d="m 79.81195,192.75388 q -0.461368,0 -0.679649,-0.21332 -0.213321,-0.21829 -0.213321,-0.67965 v -0.56059 q 0,-0.46633 0.213321,-0.67965 0.218281,-0.21332 0.679649,-0.20836 h 0.406797 q 0.367109,0 0.555625,0.12403 0.193477,0.12402 0.228203,0.38695 0.0099,0.0595 -0.0248,0.0992 -0.03473,0.0347 -0.09922,0.0347 -0.109141,0 -0.133946,-0.11906 -0.02976,-0.14883 -0.148828,-0.20836 -0.119062,-0.0595 -0.377031,-0.0595 H 79.81195 q -0.357188,-0.005 -0.496094,0.13395 -0.138907,0.1389 -0.138907,0.49609 v 0.56059 q 0,0.35718 0.138907,0.49609 0.143867,0.13891 0.496094,0.13891 h 0.406797 q 0.257969,0 0.377031,-0.0595 0.119063,-0.0595 0.148828,-0.20836 0.02481,-0.11907 0.133946,-0.11907 0.06449,0 0.09922,0.0397 0.03473,0.0347 0.0248,0.0943 -0.03473,0.26293 -0.228203,0.38695 -0.188516,0.12403 -0.555625,0.12403 z"
         style="font-size:4.96094px;line-height:125%;font-family:Jura;-inkscape-font-specification:'Jura, Normal';stroke:#000000;stroke-width:0.0743455"
         id="path7018" />
      <path
         d="m 83.011753,190.40735 q 0.466329,0 0.679649,0.21828 0.213321,0.21332 0.213321,0.67469 v 1.32457 q 0,0.12899 -0.128985,0.12899 -0.128984,0 -0.128984,-0.12899 v -1.32457 q 0,-0.35223 -0.138907,-0.49113 -0.138906,-0.14387 -0.496094,-0.14387 h -0.138906 q -0.386953,0 -0.595313,0.12402 -0.208359,0.12403 -0.248047,0.37207 0,0.0149 -0.0099,0.0447 v 1.41883 q 0,0.12899 -0.128984,0.12899 -0.128985,0 -0.128985,-0.12899 v -3.17996 q 0,-0.12899 0.128985,-0.12899 0.128984,0 0.128984,0.12899 v 1.26504 q 0.26293,-0.30262 0.853282,-0.30262 z"
         style="font-size:4.96094px;line-height:125%;font-family:Jura;-inkscape-font-specification:'Jura, Normal';stroke:#000000;stroke-width:0.0743455"
         id="path7020" />
      <path
         d="m 85.467415,192.75388 q -0.352227,0 -0.520899,-0.16372 -0.163711,-0.16371 -0.163711,-0.51097 v -2.63426 q 0,-0.12899 0.128985,-0.12899 0.128984,0 0.128984,0.12899 v 2.63426 q 0,0.24308 0.0893,0.33238 0.0893,0.0843 0.332383,0.0843 0.133945,0 0.133945,0.12898 0,0.0645 -0.03473,0.0992 -0.03473,0.0298 -0.09426,0.0298 z"
         style="font-size:4.96094px;line-height:125%;font-family:Jura;-inkscape-font-specification:'Jura, Normal';stroke:#000000;stroke-width:0.0743455"
         id="path7022" />
      <path
         d="m 86.950738,192.75388 q -0.466329,0 -0.679649,-0.21332 -0.21332,-0.21333 -0.21332,-0.67469 v -0.56059 q 0,-0.47129 0.21332,-0.68461 0.21332,-0.21332 0.679649,-0.20836 h 0.406797 q 0.466328,0 0.679649,0.21332 0.21332,0.21332 0.21332,0.67965 v 0.55563 q 0,0.46632 -0.21332,0.67965 -0.213321,0.21332 -0.679649,0.21332 z m 0.406797,-0.25797 q 0.352227,0 0.491133,-0.13891 0.143867,-0.14387 0.143867,-0.49609 v -0.55563 q 0,-0.35223 -0.143867,-0.49113 -0.138906,-0.14387 -0.491133,-0.14387 h -0.406797 q -0.352227,-0.005 -0.496094,0.13891 -0.138906,0.1389 -0.138906,0.49609 v 0.56059 q 0,0.35222 0.138906,0.49113 0.143867,0.13891 0.496094,0.13891 z"
         style="font-size:4.96094px;line-height:125%;font-family:Jura;-inkscape-font-specification:'Jura, Normal';stroke:#000000;stroke-width:0.0743455"
         id="path7024" />
      <path
         d="m 89.61972,192.74891 q -0.302617,0 -0.466328,-0.12898 -0.15875,-0.12898 -0.188516,-0.39687 -0.005,-0.0645 0.02481,-0.0992 0.03473,-0.0397 0.09922,-0.0397 0.05953,0 0.0893,0.0347 0.03473,0.0298 0.04465,0.0943 0.01984,0.15379 0.109141,0.21828 0.09426,0.0595 0.287734,0.0595 h 0.813594 q 0.233165,0 0.317501,-0.0843 0.0893,-0.0893 0.0893,-0.32246 0,-0.23317 -0.0893,-0.3175 -0.08434,-0.0893 -0.317501,-0.0893 h -0.798711 q -0.327422,0 -0.486172,-0.15379 -0.153789,-0.15379 -0.153789,-0.47625 0,-0.32742 0.153789,-0.48121 0.15875,-0.15875 0.486172,-0.15875 h 0.773907 q 0.565547,0 0.625078,0.4961 0.005,0.0645 -0.02976,0.0992 -0.02977,0.0347 -0.09426,0.0347 -0.05953,0 -0.09426,-0.0298 -0.02977,-0.0298 -0.04465,-0.0943 -0.01984,-0.13891 -0.104179,-0.19348 -0.07937,-0.0546 -0.257969,-0.0546 h -0.773907 q -0.218281,0 -0.302617,0.0843 -0.07937,0.0794 -0.07937,0.29765 0,0.21332 0.07937,0.2927 0.08434,0.0794 0.302617,0.0794 h 0.798711 q 0.342305,0 0.501055,0.16371 0.163711,0.16371 0.163711,0.50106 0,0.3423 -0.163711,0.50601 -0.15875,0.15875 -0.501055,0.15875 z"
         style="font-size:4.96094px;line-height:125%;font-family:Jura;-inkscape-font-specification:'Jura, Normal';stroke:#000000;stroke-width:0.0743455"
         id="path7026" />
      <path
         d="m 92.387927,192.74891 q -0.302617,0 -0.466328,-0.12898 -0.158751,-0.12898 -0.188516,-0.39687 -0.005,-0.0645 0.02481,-0.0992 0.03473,-0.0397 0.09922,-0.0397 0.05953,0 0.0893,0.0347 0.03473,0.0298 0.04465,0.0943 0.01984,0.15379 0.10914,0.21828 0.09426,0.0595 0.287735,0.0595 h 0.813594 q 0.233164,0 0.3175,-0.0843 0.0893,-0.0893 0.0893,-0.32246 0,-0.23317 -0.0893,-0.3175 -0.08434,-0.0893 -0.3175,-0.0893 H 92.40281 q -0.327422,0 -0.486172,-0.15379 -0.15379,-0.15379 -0.15379,-0.47625 0,-0.32742 0.15379,-0.48121 0.15875,-0.15875 0.486172,-0.15875 h 0.773906 q 0.565547,0 0.625079,0.4961 0.005,0.0645 -0.02977,0.0992 -0.02977,0.0347 -0.09426,0.0347 -0.05953,0 -0.09426,-0.0298 -0.02976,-0.0298 -0.04465,-0.0943 -0.01984,-0.13891 -0.10418,-0.19348 -0.07937,-0.0546 -0.257969,-0.0546 H 92.40281 q -0.218282,0 -0.302618,0.0843 -0.07938,0.0794 -0.07938,0.29765 0,0.21332 0.07938,0.2927 0.08434,0.0794 0.302618,0.0794 h 0.798711 q 0.342305,0 0.501055,0.16371 0.163711,0.16371 0.163711,0.50106 0,0.3423 -0.163711,0.50601 -0.15875,0.15875 -0.501055,0.15875 z"
         style="font-size:4.96094px;line-height:125%;font-family:Jura;-inkscape-font-specification:'Jura, Normal';stroke:#000000;stroke-width:0.0743455"
         id="path7028" />
      <path
         d="m 94.669962,191.53348 q -0.05457,0 -0.0893,-0.0347 -0.03473,-0.0347 -0.03473,-0.0843 0,-0.0496 0.03473,-0.0843 0.03473,-0.0347 0.0893,-0.0347 h 1.36922 q 0.04961,0 0.08434,0.0347 0.03473,0.0347 0.03473,0.0843 0,0.0496 -0.03473,0.0843 -0.03473,0.0347 -0.08434,0.0347 z"
         style="font-size:4.96094px;line-height:125%;font-family:Jura;-inkscape-font-specification:'Jura, Normal';stroke:#000000;stroke-width:0.0743455"
         id="path7030" />
      <path
         d="m 97.80032,192.74891 q -0.441524,0 -0.654844,-0.19347 -0.213321,-0.19844 -0.228204,-0.62508 -0.005,-0.0595 0.02977,-0.0943 0.03969,-0.0397 0.09922,-0.0397 0.05457,0 0.0893,0.0347 0.03473,0.0347 0.03969,0.0943 0.0099,0.3175 0.148828,0.44152 0.138907,0.12403 0.476251,0.12403 h 0.714375 q 0.357188,0 0.491133,-0.13395 0.138906,-0.13891 0.138906,-0.49113 0,-0.35223 -0.138906,-0.48617 -0.138906,-0.13891 -0.491133,-0.13891 h -0.679649 q -0.436562,0 -0.639961,-0.2034 -0.203399,-0.2034 -0.203399,-0.63996 0,-0.4316 0.203399,-0.635 0.203399,-0.2034 0.635,-0.2034 h 0.699493 q 0.416719,0 0.615156,0.18852 0.203399,0.18851 0.218282,0.58539 0.005,0.0595 -0.03473,0.0942 -0.03473,0.0347 -0.09426,0.0347 -0.05457,0 -0.0893,-0.0347 -0.03473,-0.0347 -0.03969,-0.0893 -0.005,-0.28774 -0.138906,-0.40184 -0.128985,-0.11906 -0.436563,-0.11906 h -0.699493 q -0.322461,0 -0.451445,0.12898 -0.128985,0.12899 -0.128985,0.45145 0,0.32742 0.128985,0.45641 0.128984,0.12898 0.456406,0.12898 h 0.679649 q 0.461367,0 0.674688,0.21332 0.21332,0.21332 0.21332,0.66973 0,0.4564 -0.21332,0.66972 -0.213321,0.21332 -0.674688,0.21332 z"
         style="font-size:4.96094px;line-height:125%;font-family:Jura;-inkscape-font-specification:'Jura, Normal';stroke:#000000;stroke-width:0.0743455"
         id="path7032" />
      <path
         d="m 101.08942,192.75388 q -0.46137,0 -0.67965,-0.21332 -0.21332,-0.21829 -0.21332,-0.67965 v -0.56059 q 0,-0.46633 0.21332,-0.67965 0.21828,-0.21332 0.67965,-0.20836 h 0.4068 q 0.3671,0 0.55562,0.12403 0.19348,0.12402 0.2282,0.38695 0.01,0.0595 -0.0248,0.0992 -0.0347,0.0347 -0.0992,0.0347 -0.10914,0 -0.13395,-0.11906 -0.0298,-0.14883 -0.14882,-0.20836 -0.11907,-0.0595 -0.37703,-0.0595 h -0.4068 q -0.35719,-0.005 -0.4961,0.13395 -0.1389,0.1389 -0.1389,0.49609 v 0.56059 q 0,0.35718 0.1389,0.49609 0.14387,0.13891 0.4961,0.13891 h 0.4068 q 0.25796,0 0.37703,-0.0595 0.11906,-0.0595 0.14882,-0.20836 0.0248,-0.11907 0.13395,-0.11907 0.0645,0 0.0992,0.0397 0.0347,0.0347 0.0248,0.0943 -0.0347,0.26293 -0.2282,0.38695 -0.18852,0.12403 -0.55562,0.12403 z"
         style="font-size:4.96094px;line-height:125%;font-family:Jura;-inkscape-font-specification:'Jura, Normal';stroke:#000000;stroke-width:0.0743455"
         id="path7034" />
      <path
         d="m 104.28922,190.40735 q 0.46633,0 0.67965,0.21828 0.21332,0.21332 0.21332,0.67469 v 1.32457 q 0,0.12899 -0.12898,0.12899 -0.12899,0 -0.12899,-0.12899 v -1.32457 q 0,-0.35223 -0.1389,-0.49113 -0.13891,-0.14387 -0.4961,-0.14387 h -0.1389 q -0.38696,0 -0.59532,0.12402 -0.20836,0.12403 -0.24804,0.37207 0,0.0149 -0.01,0.0447 v 1.41883 q 0,0.12899 -0.12898,0.12899 -0.12898,0 -0.12898,-0.12899 v -3.17996 q 0,-0.12899 0.12898,-0.12899 0.12898,0 0.12898,0.12899 v 1.26504 q 0.26293,-0.30262 0.85329,-0.30262 z"
         style="font-size:4.96094px;line-height:125%;font-family:Jura;-inkscape-font-specification:'Jura, Normal';stroke:#000000;stroke-width:0.0743455"
         id="path7036" />
      <path
         d="m 108.02977,190.41231 q 0.12898,0 0.12898,0.12899 v 2.08359 q 0,0.12899 -0.12898,0.12899 -0.12899,0 -0.12899,-0.12899 v -0.23812 q -0.23812,0.36711 -0.85328,0.36711 h -0.1389 q -0.46633,0 -0.67965,-0.21332 -0.21332,-0.21829 -0.21332,-0.67965 v -1.31961 q 0,-0.12899 0.12898,-0.12899 0.12899,0 0.12899,0.12899 v 1.31961 q 0,0.35718 0.1389,0.49609 0.13891,0.13891 0.4961,0.13891 h 0.1389 q 0.39192,0 0.6102,-0.12403 0.21828,-0.12402 0.23812,-0.36711 0,-0.0248 0.005,-0.0347 v -1.42875 q 0,-0.12899 0.12899,-0.12899 z"
         style="font-size:4.96094px;line-height:125%;font-family:Jura;-inkscape-font-specification:'Jura, Normal';stroke:#000000;stroke-width:0.0743455"
         id="path7038" />
      <path
         d="m 109.76609,192.75388 q -0.35222,0 -0.52089,-0.16372 -0.16372,-0.16371 -0.16372,-0.51097 v -2.63426 q 0,-0.12899 0.12899,-0.12899 0.12898,0 0.12898,0.12899 v 2.63426 q 0,0.24308 0.0893,0.33238 0.0893,0.0843 0.33238,0.0843 0.13395,0 0.13395,0.12898 0,0.0645 -0.0347,0.0992 -0.0347,0.0298 -0.0943,0.0298 z"
         style="font-size:4.96094px;line-height:125%;font-family:Jura;-inkscape-font-specification:'Jura, Normal';stroke:#000000;stroke-width:0.0743455"
         id="path7040" />
      <path
         d="m 110.61442,191.68231 v 0.18356 q 0,0.35222 0.1389,0.49113 0.14387,0.13891 0.4961,0.13891 h 0.40679 q 0.3175,0 0.45641,-0.0794 0.14387,-0.0843 0.16867,-0.28277 0.0248,-0.12403 0.13395,-0.12403 0.0695,0 0.0992,0.0347 0.0347,0.0347 0.0248,0.0992 -0.0347,0.31254 -0.25301,0.46137 -0.21332,0.14883 -0.63004,0.14883 h -0.40679 q -0.46137,0 -0.67965,-0.21332 -0.21332,-0.21333 -0.21332,-0.67469 v -0.56059 q 0,-0.46633 0.21332,-0.67965 0.21828,-0.21828 0.67965,-0.21332 h 0.40679 q 0.46137,0 0.67469,0.21828 0.21828,0.21332 0.21828,0.67469 v 0.24805 q 0,0.12898 -0.12898,0.12898 z m 0,-0.25797 h 1.67679 v -0.11906 q 0,-0.35719 -0.1389,-0.49609 -0.13891,-0.13891 -0.4961,-0.13891 h -0.40679 q -0.35719,-0.005 -0.4961,0.13395 -0.1389,0.1389 -0.1389,0.50105 z"
         style="font-size:4.96094px;line-height:125%;font-family:Jura;-inkscape-font-specification:'Jura, Normal';stroke:#000000;stroke-width:0.0743455"
         id="path7042" />
      <path
         d="m 114.77664,192.75388 q -0.0595,0 -0.0943,-0.0347 -0.0347,-0.0347 -0.0347,-0.0943 v -2.93688 q 0,-0.0595 0.0347,-0.0942 0.0347,-0.0347 0.0943,-0.0347 0.0595,0 0.0943,0.0347 0.0347,0.0347 0.0347,0.0942 v 2.93688 q 0,0.0595 -0.0347,0.0943 -0.0347,0.0347 -0.0943,0.0347 z"
         style="fill:#696969;stroke:#696969"
         id="path7044" />
      <path
         d="m 116.51297,192.75388 q -0.35222,0 -0.52089,-0.16372 -0.16372,-0.16371 -0.16372,-0.51097 v -2.63426 q 0,-0.12899 0.12899,-0.12899 0.12898,0 0.12898,0.12899 v 2.63426 q 0,0.24308 0.0893,0.33238 0.0893,0.0843 0.33238,0.0843 0.13395,0 0.13395,0.12898 0,0.0645 -0.0347,0.0992 -0.0347,0.0298 -0.0943,0.0298 z"
         style="fill:#696969;stroke:#696969"
         id="path7046" />
      <path
         d="m 119.0877,190.42719 q 0.0794,0.0298 0.0794,0.10418 0,0.0347 -0.0149,0.0645 l -0.98227,2.05879 q -0.0298,0.0546 -0.0694,0.0794 -0.0347,0.0199 -0.0893,0.0199 -0.10914,0 -0.15379,-0.0992 l -0.92273,-2.06375 q -0.0149,-0.0298 -0.0149,-0.0595 0,-0.0744 0.0843,-0.10418 0.0298,-0.0149 0.0645,-0.0149 0.0744,0 0.10418,0.0794 l 0.84336,1.88515 0.89793,-1.88515 q 0.0347,-0.0794 0.10914,-0.0794 0.0298,0 0.0645,0.0149 z"
         style="fill:#696969;stroke:#696969"
         id="path7048" />
      <path
         d="m 119.84177,191.68231 v 0.18356 q 0,0.35222 0.1389,0.49113 0.14387,0.13891 0.4961,0.13891 h 0.4068 q 0.3175,0 0.4564,-0.0794 0.14387,-0.0843 0.16867,-0.28277 0.0248,-0.12403 0.13395,-0.12403 0.0695,0 0.0992,0.0347 0.0347,0.0347 0.0248,0.0992 -0.0347,0.31254 -0.25301,0.46137 -0.21332,0.14883 -0.63003,0.14883 h -0.4068 q -0.46137,0 -0.67965,-0.21332 -0.21332,-0.21333 -0.21332,-0.67469 v -0.56059 q 0,-0.46633 0.21332,-0.67965 0.21828,-0.21828 0.67965,-0.21332 h 0.4068 q 0.46136,0 0.67468,0.21828 0.21828,0.21332 0.21828,0.67469 v 0.24805 q 0,0.12898 -0.12898,0.12898 z m 0,-0.25797 h 1.6768 v -0.11906 q 0,-0.35719 -0.13891,-0.49609 -0.13891,-0.13891 -0.49609,-0.13891 h -0.4068 q -0.35719,-0.005 -0.4961,0.13395 -0.1389,0.1389 -0.1389,0.50105 z"
         style="fill:#696969;stroke:#696969"
         id="path7050" />
      <path
         d="m 123.14575,192.74891 q -0.30262,0 -0.46633,-0.12898 -0.15875,-0.12898 -0.18852,-0.39687 -0.005,-0.0645 0.0248,-0.0992 0.0347,-0.0397 0.0992,-0.0397 0.0595,0 0.0893,0.0347 0.0347,0.0298 0.0446,0.0943 0.0199,0.15379 0.10914,0.21828 0.0943,0.0595 0.28774,0.0595 h 0.81359 q 0.23317,0 0.3175,-0.0843 0.0893,-0.0893 0.0893,-0.32246 0,-0.23317 -0.0893,-0.3175 -0.0843,-0.0893 -0.3175,-0.0893 h -0.79871 q -0.32742,0 -0.48617,-0.15379 -0.15379,-0.15379 -0.15379,-0.47625 0,-0.32742 0.15379,-0.48121 0.15875,-0.15875 0.48617,-0.15875 h 0.77391 q 0.56555,0 0.62508,0.4961 0.005,0.0645 -0.0298,0.0992 -0.0298,0.0347 -0.0943,0.0347 -0.0595,0 -0.0943,-0.0298 -0.0298,-0.0298 -0.0447,-0.0943 -0.0198,-0.13891 -0.10418,-0.19348 -0.0794,-0.0546 -0.25797,-0.0546 h -0.77391 q -0.21828,0 -0.30262,0.0843 -0.0794,0.0794 -0.0794,0.29765 0,0.21332 0.0794,0.2927 0.0843,0.0794 0.30262,0.0794 h 0.79871 q 0.34231,0 0.50106,0.16371 0.16371,0.16371 0.16371,0.50106 0,0.3423 -0.16371,0.50601 -0.15875,0.15875 -0.50106,0.15875 z"
         style="fill:#696969;stroke:#696969"
         id="path7052" />
      <path
         d="m 126.65314,190.40735 q 0.46632,0 0.67965,0.21828 0.21332,0.21332 0.21332,0.67469 v 1.32457 q 0,0.12899 -0.12899,0.12899 -0.12898,0 -0.12898,-0.12899 v -1.32457 q 0,-0.35223 -0.13891,-0.49113 -0.13891,-0.14387 -0.49609,-0.14387 h -0.13891 q -0.38695,0 -0.59531,0.12402 -0.20836,0.12403 -0.24805,0.37207 0,0.0149 -0.01,0.0447 v 1.41883 q 0,0.12899 -0.12899,0.12899 -0.12898,0 -0.12898,-0.12899 v -3.17996 q 0,-0.12899 0.12898,-0.12899 0.12899,0 0.12899,0.12899 v 1.26504 q 0.26293,-0.30262 0.85328,-0.30262 z"
         style="fill:#696969;stroke:#696969"
         id="path7054" />
      <path
         d="m 128.61767,191.68231 v 0.18356 q 0,0.35222 0.1389,0.49113 0.14387,0.13891 0.4961,0.13891 h 0.40679 q 0.3175,0 0.45641,-0.0794 0.14387,-0.0843 0.16867,-0.28277 0.0248,-0.12403 0.13395,-0.12403 0.0695,0 0.0992,0.0347 0.0347,0.0347 0.0248,0.0992 -0.0347,0.31254 -0.25301,0.46137 -0.21332,0.14883 -0.63004,0.14883 h -0.40679 q -0.46137,0 -0.67965,-0.21332 -0.21332,-0.21333 -0.21332,-0.67469 v -0.56059 q 0,-0.46633 0.21332,-0.67965 0.21828,-0.21828 0.67965,-0.21332 h 0.40679 q 0.46137,0 0.67469,0.21828 0.21828,0.21332 0.21828,0.67469 v 0.24805 q 0,0.12898 -0.12898,0.12898 z m 0,-0.25797 h 1.67679 v -0.11906 q 0,-0.35719 -0.1389,-0.49609 -0.13891,-0.13891 -0.4961,-0.13891 h -0.40679 q -0.35719,-0.005 -0.4961,0.13395 -0.1389,0.1389 -0.1389,0.50105 z"
         style="fill:#696969;stroke:#696969"
         id="path7056" />
      <path
         d="m 131.53965,192.75388 q -0.0595,0 -0.0942,-0.0298 -0.0347,-0.0347 -0.0347,-0.0992 v -2.08359 q 0,-0.0645 0.0347,-0.0943 0.0347,-0.0347 0.0942,-0.0347 0.12899,0 0.12899,0.12899 v 2.08359 q 0,0.12899 -0.12899,0.12899 z m -0.0546,-2.79301 q -0.0843,0 -0.12898,-0.0446 -0.0446,-0.0447 -0.0446,-0.12899 v -0.10914 q 0,-0.0843 0.0446,-0.12898 0.0446,-0.0447 0.12898,-0.0447 h 0.11411 q 0.16371,0 0.16371,0.17363 v 0.10914 q 0,0.17364 -0.16371,0.17364 z"
         style="fill:#696969;stroke:#696969"
         id="path7058" />
      <path
         d="m 135.21572,190.40735 q 0.39687,0 0.57051,0.2034 0.17363,0.2034 0.17363,0.66973 v 1.34937 q 0,0.12899 -0.12899,0.12899 -0.12898,0 -0.12898,-0.12899 v -1.34937 q 0,-0.32743 -0.1141,-0.47129 -0.1141,-0.14387 -0.37207,-0.14387 h -0.2034 q -0.32742,0 -0.46633,0.14387 -0.13891,0.14386 -0.13891,0.47129 v 1.34937 q 0,0.12899 -0.12898,0.12899 -0.12898,0 -0.12898,-0.12899 v -1.34937 q 0,-0.32743 -0.11411,-0.47129 -0.1141,-0.14387 -0.37207,-0.14387 h -0.20836 q -0.32246,0 -0.46632,0.14387 -0.13891,0.14386 -0.13891,0.47129 v 1.34937 q 0,0.12899 -0.12899,0.12899 -0.12898,0 -0.12898,-0.12899 v -2.08855 q 0,-0.12899 0.12898,-0.12899 0.12899,0 0.12899,0.12899 v 0.19347 q 0.10914,-0.17363 0.25797,-0.24804 0.14883,-0.0794 0.38199,-0.0794 h 0.17363 q 0.26293,0 0.41672,0.0943 0.15875,0.0893 0.25301,0.29766 0.0992,-0.20836 0.25797,-0.29766 0.15875,-0.0943 0.42168,-0.0943 z"
         style="fill:#696969;stroke:#696969"
         id="path7060" />
    </g>
    <g
       aria-label="Medienberatungszentrum"
       id="text813"
       style="font-size:1.96466px;line-height:0%;letter-spacing:0px;word-spacing:0px;stroke-width:0.0818612">
      <path
         d="m 77.466358,194.75804 q 0.07061,0 0.07061,0.0798 v 1.81731 q 0,0.0798 -0.07981,0.0798 -0.07981,0 -0.07981,-0.0798 v -1.56559 l -0.663075,1.00689 q -0.0307,0.0522 -0.09516,0.0522 -0.05526,0 -0.08902,-0.0522 l -0.666144,-1.0161 v 1.5748 q 0,0.0798 -0.07981,0.0798 -0.07982,0 -0.07982,-0.0798 v -1.81731 q 0,-0.0798 0.07982,-0.0798 0.0614,0 0.09209,0.0522 l 0.749028,1.14503 0.745959,-1.14503 q 0.0307,-0.0522 0.09516,-0.0522 z"
         style="font-size:3.06979px;line-height:125%;font-family:Jura;-inkscape-font-specification:'Jura, Normal';stroke-width:0.25"
         id="path7063" />
      <path
         d="m 78.227669,196.07191 v 0.11358 q 0,0.21796 0.08595,0.30391 0.08902,0.086 0.306979,0.086 h 0.251723 q 0.196466,0 0.28242,-0.0491 0.08902,-0.0522 0.104373,-0.17498 0.01535,-0.0767 0.08288,-0.0767 0.04298,0 0.0614,0.0215 0.02149,0.0215 0.01535,0.0614 -0.02149,0.1934 -0.156559,0.28549 -0.132001,0.0921 -0.389863,0.0921 h -0.251723 q -0.285491,0 -0.420561,-0.13201 -0.132001,-0.132 -0.132001,-0.41749 v -0.34688 q 0,-0.28856 0.132001,-0.42056 0.13507,-0.13508 0.420561,-0.13201 h 0.251723 q 0.28549,0 0.417491,0.13508 0.135071,0.132 0.135071,0.41749 v 0.15349 q 0,0.0798 -0.07981,0.0798 z m 0,-0.15963 h 1.037589 v -0.0737 q 0,-0.22103 -0.08595,-0.30698 -0.08595,-0.086 -0.306978,-0.086 h -0.251723 q -0.221025,-0.003 -0.306979,0.0829 -0.08595,0.0859 -0.08595,0.31005 z"
         style="font-size:3.06979px;line-height:125%;font-family:Jura;-inkscape-font-specification:'Jura, Normal';stroke-width:0.25"
         id="path7065" />
      <path
         d="m 81.193083,194.60762 q 0.07981,0 0.07981,0.0798 v 1.96773 q 0,0.0798 -0.07981,0.0798 -0.07981,0 -0.07981,-0.0798 v -0.12893 q -0.06754,0.10437 -0.196467,0.15656 -0.128931,0.0522 -0.331537,0.0522 h -0.116652 q -0.285491,0 -0.420561,-0.13201 -0.132001,-0.13507 -0.132001,-0.42056 v -0.34381 q 0,-0.28549 0.132001,-0.41749 0.13507,-0.13508 0.420561,-0.13508 h 0.644656 v -0.5986 q 0,-0.0798 0.07981,-0.0798 z m -0.607818,1.96774 q 0.245583,0 0.386793,-0.0767 0.141211,-0.0798 0.141211,-0.22716 v -0.82578 h -0.644656 q -0.221025,0 -0.306979,0.089 -0.08595,0.086 -0.08595,0.30391 v 0.34381 q 0,0.22103 0.08595,0.30698 0.08902,0.086 0.306979,0.086 z"
         style="font-size:3.06979px;line-height:125%;font-family:Jura;-inkscape-font-specification:'Jura, Normal';stroke-width:0.25"
         id="path7067" />
      <path
         d="m 81.896068,196.73499 q -0.03684,0 -0.05833,-0.0184 -0.02149,-0.0215 -0.02149,-0.0614 v -1.28931 q 0,-0.0399 0.02149,-0.0583 0.02149,-0.0215 0.05833,-0.0215 0.07981,0 0.07981,0.0798 v 1.28931 q 0,0.0798 -0.07981,0.0798 z m -0.03377,-1.7283 q -0.05219,0 -0.07981,-0.0276 -0.02763,-0.0276 -0.02763,-0.0798 v -0.0675 q 0,-0.0522 0.02763,-0.0798 0.02763,-0.0276 0.07981,-0.0276 h 0.07061 q 0.101303,0 0.101303,0.10745 v 0.0675 q 0,0.10744 -0.101303,0.10744 z"
         style="font-size:3.06979px;line-height:125%;font-family:Jura;-inkscape-font-specification:'Jura, Normal';stroke-width:0.25"
         id="path7069" />
      <path
         d="m 82.666588,196.07191 v 0.11358 q 0,0.21796 0.08595,0.30391 0.08902,0.086 0.306979,0.086 h 0.251723 q 0.196466,0 0.28242,-0.0491 0.08902,-0.0522 0.104373,-0.17498 0.01535,-0.0767 0.08288,-0.0767 0.04298,0 0.0614,0.0215 0.02149,0.0215 0.01535,0.0614 -0.02149,0.1934 -0.156559,0.28549 -0.132001,0.0921 -0.389863,0.0921 h -0.251723 q -0.285491,0 -0.420561,-0.13201 -0.132001,-0.132 -0.132001,-0.41749 v -0.34688 q 0,-0.28856 0.132001,-0.42056 0.13507,-0.13508 0.420561,-0.13201 h 0.251723 q 0.28549,0 0.417491,0.13508 0.135071,0.132 0.135071,0.41749 v 0.15349 q 0,0.0798 -0.07981,0.0798 z m 0,-0.15963 h 1.037589 v -0.0737 q 0,-0.22103 -0.08595,-0.30698 -0.08595,-0.086 -0.306979,-0.086 h -0.251723 q -0.221025,-0.003 -0.306979,0.0829 -0.08595,0.0859 -0.08595,0.31005 z"
         style="font-size:3.06979px;line-height:125%;font-family:Jura;-inkscape-font-specification:'Jura, Normal';stroke-width:0.25"
         id="path7071" />
      <path
         d="m 85.168464,195.28604 q 0.28856,0 0.420561,0.13508 0.132001,0.132 0.132001,0.41749 v 0.81656 q 0,0.0798 -0.07981,0.0798 -0.07981,0 -0.07981,-0.0798 v -0.81656 q 0,-0.22103 -0.08595,-0.30698 -0.08595,-0.086 -0.306979,-0.086 h -0.08595 q -0.242514,0 -0.377584,0.0768 -0.135071,0.0767 -0.14735,0.22716 0,0.0153 -0.0031,0.0215 v 0.8841 q 0,0.0798 -0.07981,0.0798 -0.07981,0 -0.07981,-0.0798 v -1.28931 q 0,-0.0798 0.07981,-0.0798 0.07981,0 0.07981,0.0798 v 0.14735 q 0.14735,-0.22717 0.528004,-0.22717 z"
         style="font-size:3.06979px;line-height:125%;font-family:Jura;-inkscape-font-specification:'Jura, Normal';stroke-width:0.25"
         id="path7073" />
      <path
         d="m 87.068662,195.28297 q 0.28856,0 0.420561,0.13508 0.132001,0.132 0.132001,0.41749 v 0.34688 q 0,0.28549 -0.132001,0.42056 -0.132001,0.13201 -0.420561,0.13201 H 86.95201 q -0.386794,0 -0.528004,-0.21182 v 0.132 q 0,0.0798 -0.07981,0.0798 -0.07982,0 -0.07982,-0.0798 v -1.96773 q 0,-0.0798 0.07982,-0.0798 0.07981,0 0.07981,0.0798 v 0.81042 q 0.14121,-0.21489 0.528004,-0.21489 z m 0.392933,0.55257 q 0,-0.21796 -0.08595,-0.30391 -0.08595,-0.089 -0.306979,-0.089 H 86.95201 q -0.245583,0 -0.386794,0.0798 -0.14121,0.0767 -0.14121,0.22716 v 0.50652 0.0153 q 0,0.14735 0.14121,0.22716 0.141211,0.0767 0.386794,0.0767 h 0.116652 q 0.221025,0 0.306979,-0.086 0.08595,-0.089 0.08595,-0.30698 z"
         style="font-size:3.06979px;line-height:125%;font-family:Jura;-inkscape-font-specification:'Jura, Normal';stroke-width:0.25"
         id="path7075" />
      <path
         d="m 88.272019,196.07191 v 0.11358 q 0,0.21796 0.08595,0.30391 0.08902,0.086 0.306979,0.086 h 0.251723 q 0.196467,0 0.282421,-0.0491 0.08902,-0.0522 0.104373,-0.17498 0.01535,-0.0767 0.08288,-0.0767 0.04298,0 0.0614,0.0215 0.02149,0.0215 0.01535,0.0614 -0.02149,0.1934 -0.15656,0.28549 -0.132001,0.0921 -0.389863,0.0921 h -0.251723 q -0.28549,0 -0.420561,-0.13201 -0.132001,-0.132 -0.132001,-0.41749 v -0.34688 q 0,-0.28856 0.132001,-0.42056 0.135071,-0.13508 0.420561,-0.13201 h 0.251723 q 0.285491,0 0.417492,0.13508 0.13507,0.132 0.13507,0.41749 v 0.15349 q 0,0.0798 -0.07981,0.0798 z m 0,-0.15963 h 1.037589 v -0.0737 q 0,-0.22103 -0.08595,-0.30698 -0.08595,-0.086 -0.306979,-0.086 h -0.251723 q -0.221025,-0.003 -0.306979,0.0829 -0.08595,0.0859 -0.08595,0.31005 z"
         style="font-size:3.06979px;line-height:125%;font-family:Jura;-inkscape-font-specification:'Jura, Normal';stroke-width:0.25"
         id="path7077" />
      <path
         d="m 90.752407,195.28604 q 0.07981,0 0.07981,0.0798 0,0.0798 -0.07981,0.0798 -0.276281,0 -0.426701,0.12586 -0.15042,0.12587 -0.162699,0.35917 0,0.0154 -0.0031,0.0215 v 0.70298 q 0,0.0798 -0.07981,0.0798 -0.07981,0 -0.07981,-0.0798 v -1.28931 q 0,-0.0798 0.07981,-0.0798 0.07981,0 0.07981,0.0798 v 0.24558 q 0.07981,-0.15656 0.230234,-0.23944 0.153489,-0.086 0.362235,-0.086 z"
         style="font-size:3.06979px;line-height:125%;font-family:Jura;-inkscape-font-specification:'Jura, Normal';stroke-width:0.25"
         id="path7079" />
      <path
         d="m 91.768503,195.28604 q 0.288561,0 0.420562,0.13201 0.132001,0.132 0.132001,0.42056 v 0.81656 q 0,0.0798 -0.07981,0.0798 -0.07981,0 -0.07981,-0.0798 v -0.15042 q -0.07368,0.11358 -0.208746,0.17191 -0.132001,0.0583 -0.319258,0.0583 h -0.171909 q -0.236373,0 -0.349956,-0.11052 -0.110512,-0.11051 -0.110512,-0.34995 0,-0.23945 0.110512,-0.34996 0.113583,-0.11358 0.349956,-0.11358 h 0.699913 q -0.0061,-0.20261 -0.09209,-0.28242 -0.08595,-0.0829 -0.30084,-0.0829 h -0.178047 q -0.196467,0 -0.285491,0.043 -0.08902,0.0399 -0.110512,0.14121 -0.01228,0.0399 -0.0307,0.0583 -0.01842,0.0154 -0.05219,0.0154 -0.04298,0 -0.06446,-0.0215 -0.01842,-0.0215 -0.01535,-0.0614 0.02149,-0.17498 0.156559,-0.25479 0.138141,-0.0798 0.402143,-0.0798 z m 0.392934,0.95778 v -0.27321 h -0.699913 q -0.171908,0 -0.236373,0.0675 -0.06447,0.0645 -0.06447,0.23638 0,0.16884 0.06447,0.23637 0.06754,0.0645 0.236373,0.0645 h 0.171909 q 0.475817,0 0.521864,-0.30698 z"
         style="font-size:3.06979px;line-height:125%;font-family:Jura;-inkscape-font-specification:'Jura, Normal';stroke-width:0.25"
         id="path7081" />
      <path
         d="m 93.456888,196.57536 q 0.08288,0 0.08288,0.0798 0,0.0798 -0.08288,0.0798 -0.282421,0 -0.414422,-0.12894 -0.128931,-0.12893 -0.128931,-0.41135 v -0.74903 h -0.184187 q -0.07981,0 -0.07981,-0.0798 0,-0.0798 0.07981,-0.0798 h 0.184187 v -0.33153 q 0,-0.0798 0.07982,-0.0798 0.07981,0 0.07981,0.0798 v 0.33153 h 0.386794 q 0.07981,0 0.07981,0.0798 0,0.0798 -0.07981,0.0798 h -0.386794 v 0.74903 q 0,0.21489 0.08288,0.29777 0.08595,0.0829 0.30084,0.0829 z"
         style="font-size:3.06979px;line-height:125%;font-family:Jura;-inkscape-font-specification:'Jura, Normal';stroke-width:0.25"
         id="path7083" />
      <path
         d="m 95.179042,195.28604 q 0.07981,0 0.07981,0.0798 v 1.28931 q 0,0.0798 -0.07981,0.0798 -0.07981,0 -0.07981,-0.0798 v -0.14735 q -0.14735,0.22717 -0.528004,0.22717 h -0.08595 q -0.28856,0 -0.420561,-0.13201 -0.132001,-0.13507 -0.132001,-0.42056 v -0.81656 q 0,-0.0798 0.07982,-0.0798 0.07981,0 0.07981,0.0798 v 0.81656 q 0,0.22103 0.08595,0.30698 0.08595,0.086 0.306979,0.086 h 0.08595 q 0.242514,0 0.377585,-0.0767 0.13507,-0.0767 0.147349,-0.22716 0,-0.0153 0.0031,-0.0215 v -0.8841 q 0,-0.0798 0.07981,-0.0798 z"
         style="font-size:3.06979px;line-height:125%;font-family:Jura;-inkscape-font-specification:'Jura, Normal';stroke-width:0.25"
         id="path7085" />
      <path
         d="m 96.603421,195.28604 q 0.288561,0 0.420562,0.13508 0.132001,0.132 0.132001,0.41749 v 0.81656 q 0,0.0798 -0.07982,0.0798 -0.07981,0 -0.07981,-0.0798 v -0.81656 q 0,-0.22103 -0.08595,-0.30698 -0.08595,-0.086 -0.306979,-0.086 h -0.08595 q -0.242513,0 -0.377584,0.0768 -0.135071,0.0767 -0.14735,0.22716 0,0.0153 -0.0031,0.0215 v 0.8841 q 0,0.0798 -0.07981,0.0798 -0.07981,0 -0.07981,-0.0798 v -1.28931 q 0,-0.0798 0.07981,-0.0798 0.07981,0 0.07981,0.0798 v 0.14735 q 0.14735,-0.22717 0.528004,-0.22717 z"
         style="font-size:3.06979px;line-height:125%;font-family:Jura;-inkscape-font-specification:'Jura, Normal';stroke-width:0.25"
         id="path7087" />
      <path
         d="m 98.936459,195.28604 q 0.07981,0 0.07981,0.0798 v 1.59015 q 0,0.20261 -0.09516,0.29777 -0.09516,0.0952 -0.29777,0.0952 h -0.570981 q -0.181117,0 -0.276281,-0.0767 -0.09516,-0.0737 -0.110512,-0.23331 -0.0061,-0.0399 0.01228,-0.0614 0.02149,-0.0215 0.06447,-0.0215 0.03684,0 0.05526,0.0184 0.01842,0.0215 0.02763,0.0614 0.01228,0.086 0.0614,0.11973 0.05219,0.0338 0.165768,0.0338 h 0.570981 q 0.135071,0 0.184188,-0.0491 0.04912,-0.0491 0.04912,-0.18419 v -0.43591 q -0.14428,0.21489 -0.528003,0.21489 h -0.116652 q -0.285491,0 -0.420562,-0.13201 -0.132001,-0.132 -0.132001,-0.41749 v -0.34688 q 0,-0.28856 0.132001,-0.42056 0.135071,-0.13508 0.420562,-0.13201 h 0.251722 q 0.14735,0 0.242514,0.0399 0.09516,0.0399 0.150419,0.12279 v -0.0829 q 0,-0.0798 0.07981,-0.0798 z m -0.607818,1.28932 q 0.245583,0 0.386793,-0.0767 0.14121,-0.0767 0.14121,-0.22716 v -0.51266 q 0,-0.16884 -0.09516,-0.23944 -0.09516,-0.0737 -0.29777,-0.0737 h -0.251722 q -0.221025,-0.003 -0.306979,0.0829 -0.08595,0.0859 -0.08595,0.31005 v 0.34688 q 0,0.21796 0.08595,0.30391 0.08595,0.086 0.306979,0.086 z"
         style="font-size:3.06979px;line-height:125%;font-family:Jura;-inkscape-font-specification:'Jura, Normal';stroke-width:0.25"
         id="path7089" />
      <path
         d="m 99.875818,196.73192 q -0.187257,0 -0.28856,-0.0798 -0.09823,-0.0798 -0.116652,-0.24558 -0.0031,-0.0399 0.01535,-0.0614 0.02149,-0.0246 0.0614,-0.0246 0.03684,0 0.05526,0.0215 0.02149,0.0184 0.02763,0.0583 0.01228,0.0952 0.06754,0.13507 0.05833,0.0368 0.178048,0.0368 h 0.503442 q 0.14428,0 0.19647,-0.0522 0.0553,-0.0553 0.0553,-0.19954 0,-0.14428 -0.0553,-0.19646 -0.0522,-0.0553 -0.19647,-0.0553 h -0.494232 q -0.202607,0 -0.30084,-0.0952 -0.09516,-0.0952 -0.09516,-0.2947 0,-0.20261 0.09516,-0.29777 0.09823,-0.0982 0.30084,-0.0982 h 0.478882 q 0.34996,0 0.3868,0.30698 0.003,0.0399 -0.0184,0.0614 -0.0184,0.0215 -0.0583,0.0215 -0.0368,0 -0.0583,-0.0184 -0.0184,-0.0184 -0.0276,-0.0583 -0.0123,-0.0859 -0.0645,-0.11972 -0.0491,-0.0338 -0.15963,-0.0338 h -0.478882 q -0.135071,0 -0.187258,0.0522 -0.04912,0.0491 -0.04912,0.18419 0,0.132 0.04912,0.18112 0.05219,0.0491 0.187258,0.0491 h 0.494232 q 0.21182,0 0.31005,0.1013 0.10131,0.10131 0.10131,0.31005 0,0.21182 -0.10131,0.31312 -0.0982,0.0982 -0.31005,0.0982 z"
         style="font-size:3.06979px;line-height:125%;font-family:Jura;-inkscape-font-specification:'Jura, Normal';stroke-width:0.25"
         id="path7091" />
      <path
         d="m 102.38384,196.34205 q 0.0399,0 0.0583,0.0215 0.0215,0.0215 0.0184,0.0614 -0.043,0.31005 -0.38679,0.31005 h -0.81963 q -0.0798,0 -0.0798,-0.0798 0,-0.0399 0.0338,-0.0829 l 0.90866,-1.12662 h -0.60168 q -0.11358,0 -0.16577,0.0338 -0.0522,0.0338 -0.0645,0.12279 -0.009,0.0768 -0.0798,0.0768 -0.043,0 -0.0645,-0.0215 -0.0184,-0.0215 -0.0153,-0.0614 0.0184,-0.15963 0.11359,-0.2333 0.0952,-0.0767 0.27628,-0.0767 h 0.7521 q 0.0368,0 0.0583,0.0215 0.0215,0.0184 0.0215,0.0583 0,0.0399 -0.0368,0.0859 l -0.90559,1.12355 h 0.66922 q 0.10744,0 0.15963,-0.0368 0.0553,-0.0368 0.0675,-0.11972 0.006,-0.0399 0.0246,-0.0583 0.0215,-0.0184 0.0583,-0.0184 z"
         style="font-size:3.06979px;line-height:125%;font-family:Jura;-inkscape-font-specification:'Jura, Normal';stroke-width:0.25"
         id="path7093" />
      <path
         d="m 102.91184,196.07191 v 0.11358 q 0,0.21796 0.0859,0.30391 0.089,0.086 0.30698,0.086 h 0.25172 q 0.19647,0 0.28242,-0.0491 0.089,-0.0522 0.10438,-0.17498 0.0153,-0.0767 0.0829,-0.0767 0.043,0 0.0614,0.0215 0.0215,0.0215 0.0153,0.0614 -0.0215,0.1934 -0.15656,0.28549 -0.132,0.0921 -0.38987,0.0921 h -0.25172 q -0.28549,0 -0.42056,-0.13201 -0.132,-0.132 -0.132,-0.41749 v -0.34688 q 0,-0.28856 0.132,-0.42056 0.13507,-0.13508 0.42056,-0.13201 h 0.25172 q 0.28549,0 0.4175,0.13508 0.13507,0.132 0.13507,0.41749 v 0.15349 q 0,0.0798 -0.0798,0.0798 z m 0,-0.15963 h 1.03759 v -0.0737 q 0,-0.22103 -0.086,-0.30698 -0.086,-0.086 -0.30698,-0.086 h -0.25172 q -0.22102,-0.003 -0.30698,0.0829 -0.0859,0.0859 -0.0859,0.31005 z"
         style="font-size:3.06979px;line-height:125%;font-family:Jura;-inkscape-font-specification:'Jura, Normal';stroke-width:0.25"
         id="path7095" />
      <path
         d="m 105.41371,195.28604 q 0.28856,0 0.42057,0.13508 0.132,0.132 0.132,0.41749 v 0.81656 q 0,0.0798 -0.0798,0.0798 -0.0798,0 -0.0798,-0.0798 v -0.81656 q 0,-0.22103 -0.086,-0.30698 -0.086,-0.086 -0.30698,-0.086 h -0.0859 q -0.24251,0 -0.37758,0.0768 -0.13507,0.0767 -0.14735,0.22716 0,0.0153 -0.003,0.0215 v 0.8841 q 0,0.0798 -0.0798,0.0798 -0.0798,0 -0.0798,-0.0798 v -1.28931 q 0,-0.0798 0.0798,-0.0798 0.0798,0 0.0798,0.0798 v 0.14735 q 0.14735,-0.22717 0.528,-0.22717 z"
         style="font-size:3.06979px;line-height:125%;font-family:Jura;-inkscape-font-specification:'Jura, Normal';stroke-width:0.25"
         id="path7097" />
      <path
         d="m 107.1021,196.57536 q 0.0829,0 0.0829,0.0798 0,0.0798 -0.0829,0.0798 -0.28242,0 -0.41443,-0.12894 -0.12893,-0.12893 -0.12893,-0.41135 v -0.74903 h -0.18418 q -0.0798,0 -0.0798,-0.0798 0,-0.0798 0.0798,-0.0798 h 0.18418 v -0.33153 q 0,-0.0798 0.0798,-0.0798 0.0798,0 0.0798,0.0798 v 0.33153 h 0.3868 q 0.0798,0 0.0798,0.0798 0,0.0798 -0.0798,0.0798 h -0.3868 v 0.74903 q 0,0.21489 0.0829,0.29777 0.0859,0.0829 0.30084,0.0829 z"
         style="font-size:3.06979px;line-height:125%;font-family:Jura;-inkscape-font-specification:'Jura, Normal';stroke-width:0.25"
         id="path7099" />
      <path
         d="m 108.35764,195.28604 q 0.0798,0 0.0798,0.0798 0,0.0798 -0.0798,0.0798 -0.27628,0 -0.4267,0.12586 -0.15042,0.12587 -0.1627,0.35917 0,0.0154 -0.003,0.0215 v 0.70298 q 0,0.0798 -0.0798,0.0798 -0.0798,0 -0.0798,-0.0798 v -1.28931 q 0,-0.0798 0.0798,-0.0798 0.0798,0 0.0798,0.0798 v 0.24558 q 0.0798,-0.15656 0.23024,-0.23944 0.15349,-0.086 0.36223,-0.086 z"
         style="font-size:3.06979px;line-height:125%;font-family:Jura;-inkscape-font-specification:'Jura, Normal';stroke-width:0.25"
         id="path7101" />
      <path
         d="m 109.97849,195.28604 q 0.0798,0 0.0798,0.0798 v 1.28931 q 0,0.0798 -0.0798,0.0798 -0.0798,0 -0.0798,-0.0798 v -0.14735 q -0.14735,0.22717 -0.52801,0.22717 h -0.086 q -0.28856,0 -0.42056,-0.13201 -0.132,-0.13507 -0.132,-0.42056 v -0.81656 q 0,-0.0798 0.0798,-0.0798 0.0798,0 0.0798,0.0798 v 0.81656 q 0,0.22103 0.086,0.30698 0.0859,0.086 0.30698,0.086 h 0.086 q 0.24251,0 0.37759,-0.0767 0.13507,-0.0767 0.14735,-0.22716 0,-0.0153 0.003,-0.0215 v -0.8841 q 0,-0.0798 0.0798,-0.0798 z"
         style="font-size:3.06979px;line-height:125%;font-family:Jura;-inkscape-font-specification:'Jura, Normal';stroke-width:0.25"
         id="path7103" />
      <path
         d="m 112.2532,195.28297 q 0.24558,0 0.35303,0.12587 0.10744,0.12586 0.10744,0.41442 v 0.83498 q 0,0.0798 -0.0798,0.0798 -0.0798,0 -0.0798,-0.0798 v -0.83498 q 0,-0.20261 -0.0706,-0.29163 -0.0706,-0.089 -0.23024,-0.089 h -0.12586 q -0.20261,0 -0.28856,0.089 -0.0859,0.089 -0.0859,0.29163 v 0.83498 q 0,0.0798 -0.0798,0.0798 -0.0798,0 -0.0798,-0.0798 v -0.83498 q 0,-0.20261 -0.0706,-0.29163 -0.0706,-0.089 -0.23023,-0.089 h -0.12893 q -0.19954,0 -0.28856,0.089 -0.086,0.089 -0.086,0.29163 v 0.83498 q 0,0.0798 -0.0798,0.0798 -0.0798,0 -0.0798,-0.0798 v -1.29238 q 0,-0.0798 0.0798,-0.0798 0.0798,0 0.0798,0.0798 v 0.11972 q 0.0675,-0.10744 0.15963,-0.15349 0.0921,-0.0491 0.23637,-0.0491 h 0.10745 q 0.1627,0 0.25786,0.0583 0.0982,0.0553 0.15656,0.18419 0.0614,-0.12893 0.15963,-0.18419 0.0982,-0.0583 0.26093,-0.0583 z"
         style="font-size:3.06979px;line-height:125%;font-family:Jura;-inkscape-font-specification:'Jura, Normal';stroke-width:0.25"
         id="path7105" />
    </g>
  </g>
</svg>
