<?xml version="1.0" encoding="UTF-8" standalone="no"?>
<!-- Created with Inkscape (http://www.inkscape.org/) -->

<svg
   width="48"
   height="48"
   viewBox="0 0 12.7 12.7"
   version="1.1"
   id="svg5"
   xml:space="preserve"
   inkscape:export-filename="fav.png"
   inkscape:export-xdpi="540"
   inkscape:export-ydpi="540"
   inkscape:version="1.2.2 (732a01da63, 2022-12-09)"
   sodipodi:docname="fav.svg"
   xmlns:inkscape="http://www.inkscape.org/namespaces/inkscape"
   xmlns:sodipodi="http://sodipodi.sourceforge.net/DTD/sodipodi-0.dtd"
   xmlns="http://www.w3.org/2000/svg"
   xmlns:svg="http://www.w3.org/2000/svg"><sodipodi:namedview
     id="namedview7"
     pagecolor="#ffffff"
     bordercolor="#666666"
     borderopacity="1.0"
     inkscape:showpageshadow="2"
     inkscape:pageopacity="0.0"
     inkscape:pagecheckerboard="0"
     inkscape:deskcolor="#d1d1d1"
     inkscape:document-units="mm"
     showgrid="false"
     inkscape:zoom="8.6174175"
     inkscape:cx="17.406607"
     inkscape:cy="-0.11604405"
     inkscape:window-width="1920"
     inkscape:window-height="1009"
     inkscape:window-x="-8"
     inkscape:window-y="-8"
     inkscape:window-maximized="1"
     inkscape:current-layer="g548" /><defs
     id="defs2" /><g
     inkscape:label="Ebene 1"
     inkscape:groupmode="layer"
     id="layer1"><g
       id="g548"
       transform="matrix(0.45577909,0,0,0.45577909,-22.457155,-48.272818)"><g
         aria-label="b g h"
         id="text165"
         style="font-size:10.5833px;font-family:SansSerif;-inkscape-font-specification:SansSerif;letter-spacing:0px;word-spacing:0px;stroke-width:0.264583"><path
           d="m 54.503656,117.14967 q 1.069699,0 1.663976,0.77515 0.599445,0.77514 0.599445,2.17557 0,1.40559 -0.604612,2.19107 -0.604613,0.78031 -1.679479,0.78031 -1.085202,0 -1.684646,-0.78031 h -0.08268 l -0.222208,0.67696 h -0.909503 v -8.04083 h 1.214393 v 1.91203 q 0,0.21187 -0.02067,0.63045 -0.02067,0.41857 -0.03101,0.53226 h 0.05168 q 0.578774,-0.85266 1.705316,-0.85266 z m -0.315225,0.99219 q -0.733803,0 -1.059363,0.43408 -0.320393,0.42891 -0.330728,1.44177 v 0.0827 q 0,1.04386 0.330728,1.51411 0.330728,0.46509 1.080034,0.46509 0.645953,0 0.976681,-0.51159 0.335896,-0.5116 0.335896,-1.47795 0,-1.94819 -1.333248,-1.94819 z"
           style="-inkscape-font-specification:'Open Sans, Semi-Bold';fill:#800080;fill-opacity:1"
           id="path325" /><path
           d="m 65.75358,117.25303 v 0.66662 l -0.976682,0.18087 q 0.134359,0.18086 0.222208,0.44441 0.08785,0.26355 0.08785,0.55811 0,0.88366 -0.60978,1.39009 -0.60978,0.50643 -1.679479,0.50643 -0.273884,0 -0.496092,-0.0413 -0.39274,0.24287 -0.39274,0.56843 0,0.19637 0.180867,0.29456 0.186035,0.0982 0.676959,0.0982 h 0.997352 q 0.945676,0 1.436601,0.40308 0.490924,0.40307 0.490924,1.16271 0,0.97152 -0.800982,1.49862 -0.800982,0.52709 -2.315097,0.52709 -1.167883,0 -1.782831,-0.41341 -0.614948,-0.41341 -0.614948,-1.17821 0,-0.5271 0.330729,-0.88884 0.335895,-0.35656 0.93534,-0.49609 -0.242878,-0.10335 -0.403075,-0.33073 -0.155029,-0.23254 -0.155029,-0.48575 0,-0.3204 0.180867,-0.5426 0.180867,-0.22221 0.537433,-0.43925 -0.444415,-0.19121 -0.723467,-0.62012 -0.273885,-0.43408 -0.273885,-1.01285 0,-0.93018 0.583942,-1.44177 0.58911,-0.5116 1.674311,-0.5116 0.242879,0 0.506428,0.0362 0.268716,0.031 0.403075,0.0672 z m -4.490668,6.60422 q 0,0.39274 0.351399,0.60462 0.356566,0.21187 0.997352,0.21187 0.992184,0 1.477941,-0.28422 0.485757,-0.28422 0.485757,-0.75447 0,-0.37207 -0.268717,-0.53227 -0.263549,-0.15503 -0.987016,-0.15503 H 62.39979 q -0.52193,0 -0.831988,0.24288 -0.30489,0.24805 -0.30489,0.66662 z m 0.52193,-4.75421 q 0,0.53743 0.273885,0.82682 0.279051,0.28938 0.795814,0.28938 1.054196,0 1.054196,-1.12654 0,-0.5581 -0.263549,-0.85782 -0.258381,-0.30489 -0.790647,-0.30489 -0.527098,0 -0.800982,0.29972 -0.268717,0.29972 -0.268717,0.87333 z"
           style="-inkscape-font-specification:'Open Sans, Semi-Bold';fill:#800080;fill-opacity:1"
           id="path327" /><path
           d="m 74.59022,122.96842 h -1.219559 v -3.51398 q 0,-0.66146 -0.268717,-0.98702 -0.263549,-0.32556 -0.842323,-0.32556 -0.764809,0 -1.126543,0.45992 -0.356566,0.45475 -0.356566,1.52961 v 2.83703 H 69.56212 v -8.04083 h 1.214392 v 2.04122 q 0,0.49092 -0.06201,1.04903 h 0.07752 q 0.248046,-0.41341 0.687294,-0.64079 0.444416,-0.22738 1.033525,-0.22738 2.077386,0 2.077386,2.09289 z"
           style="-inkscape-font-specification:'Open Sans, Semi-Bold';fill:#800080;fill-opacity:1"
           id="path329" /></g><circle
         style="opacity:1;fill:#000000;stroke-width:0.54851134;stroke-linecap:round;stop-color:#000000;stroke:none"
         id="path486"
         cx="58.694405"
         cy="119.78783"
         r="0.90098685" /><circle
         style="opacity:1;fill:#000000;stroke-width:0.54851134;stroke-linecap:round;stop-color:#000000;stroke:none"
         id="circle540"
         cx="67.340012"
         cy="119.78783"
         r="0.90098685" /></g></g></svg>
