<?xml version="1.0" encoding="UTF-8"?>
<svg width="944px" height="205px" viewBox="0 0 944 205" version="1.1" xmlns="http://www.w3.org/2000/svg" xmlns:xlink="http://www.w3.org/1999/xlink">
    <!-- Generator: Sketch 52.4 (67378) - http://www.bohemiancoding.com/sketch -->
    <title>Group 28</title>
    <desc>Created with Sketch.</desc>
    <defs>
        <path d="M94.3,95.5 C100.7,88.6 103.9,80 103.9,69.7 C103.9,59.4 100.7,50.8 94.3,43.9 C87.9,37 79.5,33.5 69.2,33.5 C59.1,33.5 50.8,37 44.4,43.9 C38,50.8 34.8,59.4 34.8,69.7 C34.8,80 38,88.6 44.4,95.5 L5.2,95.5 C2.2,87.6 0.7,79 0.7,69.6 C0.7,50 7.3,33.6 20.4,20.4 C33.5,7.3 49.9,0.7 69.5,0.7 C89.1,0.7 105.5,7.2 118.6,20.4 C131.7,33.6 138.3,50 138.3,69.6 C138.3,79 136.8,87.6 133.8,95.5 L94.3,95.5 Z" id="path-1"></path>
        <linearGradient x1="-0.0567874491%" y1="540.200633%" x2="744.610465%" y2="540.200633%" id="linearGradient-3">
            <stop stop-color="#FF1600" offset="0%"></stop>
            <stop stop-color="#FF7A00" offset="100%"></stop>
        </linearGradient>
        <path d="M44.4,95.5 C38,88.6 34.8,80 34.8,69.7 C34.8,59.4 38,50.8 44.4,43.9 C50.8,37 59.1,33.5 69.2,33.5 C79.5,33.5 87.9,37 94.3,43.9 C100.7,50.8 103.9,59.4 103.9,69.7 C103.9,80 100.7,88.6 94.3,95.5 L133.8,95.5 C136.8,87.6 138.3,79 138.3,69.6 C138.3,50 131.7,33.6 118.6,20.4 C105.5,7.2 89.1,0.7 69.5,0.7 C49.9,0.7 33.5,7.3 20.4,20.4 C7.3,33.6 0.7,50 0.7,69.6 C0.7,79 2.2,87.6 5.2,95.5 L44.4,95.5 Z" id="path-4"></path>
        <linearGradient x1="-0.00763081395%" y1="50.0107595%" x2="100.057049%" y2="50.0107595%" id="linearGradient-6">
            <stop stop-color="#FF1600" offset="0%"></stop>
            <stop stop-color="#FF7A00" offset="100%"></stop>
        </linearGradient>
        <path d="M135.2,0.9 L135.2,203.2 L97.4,203.2 L97.4,192.4 C87.3,199.6 77.4,203.2 67.7,203.2 C47,203.2 30.6,196.5 18.4,183 C6.3,169.5 0.2,153.8 0.2,135.8 C0.2,117.8 6.3,102.1 18.4,88.6 C30.5,75.1 47,68.3 67.7,68.3 C81.2,69.2 91.1,72.8 97.4,79.2 L97.4,0.8 L135.2,0.9 Z M97.4,148 L97.4,126.1 C95.6,111 86.1,102.1 69.1,99.5 C47.5,101.2 35.4,112.4 32.7,133.1 C33.6,158.3 45.7,171.3 69.1,172.2 C86.2,169.5 95.6,161.5 97.4,148 Z" id="path-7"></path>
        <path d="M0.6,67.8 C0.6,48 6.9,31.8 19.5,19.2 C32.1,6.6 48.3,0.3 68.1,0.3 C87.9,0.3 103.6,6.6 115.3,19.2 C127,31.8 132.8,48 132.8,67.8 L132.8,81.3 L39.7,81.3 C40.6,88.5 43.7,94.1 49.1,98.2 C54.5,102.2 60.8,104.3 68,104.3 C80.6,104.3 91.8,100.7 101.7,93.5 L123.3,115.1 C113.4,128.6 95,135.3 68,135.3 C48.2,135.3 32,129 19.4,116.4 C6.8,103.8 0.6,87.6 0.6,67.8 Z M86.9,37.4 C81.5,33.4 75.2,31.3 68,31.3 C60.8,31.3 54.5,33.3 49.1,37.4 C43.7,41.5 41,47.1 41,54.3 L95,54.3 C95,47.1 92.3,41.5 86.9,37.4 Z" id="path-9"></path>
        <path d="M135.3,0.9 L135.3,203.2 L97.5,203.2 L97.5,192.4 C87.4,199.6 77.5,203.2 67.8,203.2 C47.1,203.2 30.7,196.5 18.5,183 C6.4,169.5 0.3,153.8 0.3,135.8 C0.3,117.8 6.4,102.1 18.5,88.6 C30.6,75.1 47.1,68.4 67.8,68.4 C81.3,69.3 91.2,72.9 97.5,79.3 L97.5,0.8 L135.3,0.9 Z M97.5,148 L97.5,126.1 C95.7,111 86.2,102.1 69.2,99.5 C47.6,101.2 35.5,112.4 32.8,133.1 C33.7,158.3 45.8,171.3 69.2,172.2 C86.3,169.5 95.7,161.5 97.5,148 Z" id="path-11"></path>
        <path d="M5.3,6.3 C8.9,2.7 13.8,0.8 19.9,0.8 C26.4,0.8 31.4,2.6 35,6.3 C38.6,9.9 40.4,14.5 40.4,19.9 C40.4,25.3 38.6,29.8 35,33.4 C31.4,37 26.5,38.8 20.2,38.8 C13.9,38.8 9,37 5.4,33.4 C1.8,29.8 0,25.3 0,19.9 C0,14.5 1.7,10 5.3,6.3 Z M39.1,187.3 L39.1,52.2 L1.3,52.2 L1.3,187.3 L39.1,187.3 Z" id="path-13"></path>
        <path d="M20.8,118.4 C7.3,107.2 0.6,92.5 0.6,74.5 L0.6,61 C0.6,43 7.3,28.4 20.8,17.1 C34.3,5.9 50.1,0.2 68.2,0.2 C89.8,0.2 107.8,7.8 122.1,23.1 L95.1,43.3 C87,35.2 78,31.2 68.1,31.2 C59.1,31.2 51.2,34.8 44.5,42 C37.8,49.2 34.4,57.7 34.4,67.6 C34.4,77.5 37.5,86 43.8,93.2 C50.1,100.4 58.2,104 68.1,104 C78,104 87,100 95.1,91.9 L122.1,112.1 C107.7,127.4 89.7,135 68.1,135 C50.1,135.3 34.3,129.7 20.8,118.4 Z" id="path-15"></path>
        <path d="M38,49.4 L38,135.3 L0.2,135.3 L0.2,4.2 L38,0.2 L38,12.5 C47.1,4.4 57.9,0.4 70.4,0.4 C87.5,0.4 100.5,5.6 109.5,15.9 C118.5,26.2 123,38.2 123,51.7 L123,135.4 L85.2,135.4 L85.2,61.2 C85.2,52.2 83,45.2 78.5,40.3 C74,35.4 67.2,32.7 58.1,32.5 C50.2,32.8 43.5,38.6 38,49.4 Z" id="path-17"></path>
        <path d="M89.2,0.5 C82.8,7.3 74.6,10.6 64.4,10.6 C54.2,10.6 46,7.2 39.6,0.5 L0.3,0.5 C3.6,9 8.6,16.7 15.4,23.6 C28.5,36.8 44.9,43.4 64.5,43.4 C84.1,43.4 100.5,36.8 113.6,23.7 C120.4,16.9 125.5,9.2 128.7,0.6 L89.2,0.6 L89.2,0.5 Z" id="path-19"></path>
    </defs>
    <g id="Page-1" stroke="none" stroke-width="1" fill="none" fill-rule="evenodd">
        <g id="Group-28">
            <g id="Group-3" transform="translate(660.000000, 66.000000)">
                <mask id="mask-2" fill="white">
                    <use xlink:href="#path-1"></use>
                </mask>
                <g id="Clip-2"></g>
                <polygon id="Fill-1" fill="url(#linearGradient-3)" mask="url(#mask-2)" points="0.7 95.5 138.3 95.5 138.3 0.7 0.7 0.7"></polygon>
            </g>
            <g id="Group-6" transform="translate(660.000000, 66.000000)">
                <mask id="mask-5" fill="white">
                    <use xlink:href="#path-4"></use>
                </mask>
                <g id="Clip-5"></g>
                <path d="M44.4,95.5 C38,88.6 34.8,80 34.8,69.7 C34.8,59.4 38,50.8 44.4,43.9 C50.8,37 59.1,33.5 69.2,33.5 C79.5,33.5 87.9,37 94.3,43.9 C100.7,50.8 103.9,59.4 103.9,69.7 C103.9,80 100.7,88.6 94.3,95.5 L133.8,95.5 C136.8,87.6 138.3,79 138.3,69.6 C138.3,50 131.7,33.6 118.6,20.4 C105.5,7.2 89.1,0.7 69.5,0.7 C49.9,0.7 33.5,7.3 20.4,20.4 C7.3,33.6 0.7,50 0.7,69.6 C0.7,79 2.2,87.6 5.2,95.5 L44.4,95.5 Z" id="Fill-4" fill="url(#linearGradient-6)" mask="url(#mask-5)"></path>
            </g>
            <g id="Group-9">
                <mask id="mask-8" fill="white">
                    <use xlink:href="#path-7"></use>
                </mask>
                <g id="Clip-8"></g>
                <polygon id="Fill-7" fill="#000000" mask="url(#mask-8)" points="-4.8 208.2 140.2 208.2 140.2 -4.2 -4.8 -4.2"></polygon>
            </g>
            <g id="Group-12" transform="translate(157.000000, 68.000000)">
                <mask id="mask-10" fill="white">
                    <use xlink:href="#path-9"></use>
                </mask>
                <g id="Clip-11"></g>
                <polygon id="Fill-10" fill="#000000" mask="url(#mask-10)" points="-4.4 140.3 137.8 140.3 137.8 -4.7 -4.4 -4.7"></polygon>
            </g>
            <g id="Group-15" transform="translate(306.000000, 0.000000)">
                <mask id="mask-12" fill="white">
                    <use xlink:href="#path-11"></use>
                </mask>
                <g id="Clip-14"></g>
                <polygon id="Fill-13" fill="#000000" mask="url(#mask-12)" points="-4.7 208.2 140.3 208.2 140.3 -4.2 -4.7 -4.2"></polygon>
            </g>
            <g id="Group-18" transform="translate(470.000000, 16.000000)">
                <mask id="mask-14" fill="white">
                    <use xlink:href="#path-13"></use>
                </mask>
                <g id="Clip-17"></g>
                <polygon id="Fill-16" fill="#000000" mask="url(#mask-14)" points="-5 192.3 45.4 192.3 45.4 -4.2 -5 -4.2"></polygon>
            </g>
            <g id="Group-21" transform="translate(531.000000, 68.000000)">
                <mask id="mask-16" fill="white">
                    <use xlink:href="#path-15"></use>
                </mask>
                <g id="Clip-20"></g>
                <polygon id="Fill-19" fill="#000000" mask="url(#mask-16)" points="-4.4 140.011444 127.1 140.011444 127.1 -4.799956 -4.4 -4.799956"></polygon>
            </g>
            <g id="Group-24" transform="translate(821.000000, 68.000000)">
                <mask id="mask-18" fill="white">
                    <use xlink:href="#path-17"></use>
                </mask>
                <g id="Clip-23"></g>
                <polygon id="Fill-22" fill="#000000" mask="url(#mask-18)" points="-4.8 140.4 128 140.4 128 -4.8 -4.8 -4.8"></polygon>
            </g>
            <g id="Group-27" transform="translate(665.000000, 161.000000)">
                <mask id="mask-20" fill="white">
                    <use xlink:href="#path-19"></use>
                </mask>
                <g id="Clip-26"></g>
                <polygon id="Fill-25" fill="#000000" mask="url(#mask-20)" points="-4.7 48.4 133.7 48.4 133.7 -4.5 -4.7 -4.5"></polygon>
            </g>
        </g>
    </g>
</svg>